<?xml version="1.0" standalone="no"?>
<!DOCTYPE svg PUBLIC "-//W3C//DTD SVG 20010904//EN"
 "http://www.w3.org/TR/2001/REC-SVG-20010904/DTD/svg10.dtd">
<svg version="1.0" xmlns="http://www.w3.org/2000/svg"
 width="16.000000pt" height="16.000000pt" viewBox="0 0 16.000000 16.000000"
 preserveAspectRatio="xMidYMid meet">
<metadata>
Created by potrace 1.11, written by Peter Selinger 2001-2013
</metadata>
<g transform="translate(0.000000,16.000000) scale(0.011111,-0.011111)"
fill="#000000" stroke="none">
<path d="M293 1335 c-134 -30 -211 -134 -221 -295 -10 -189 87 -359 324 -567
82 -72 203 -163 217 -163 7 0 38 20 69 45 53 42 58 49 58 85 l0 40 -46 0 c-25
0 -54 -5 -65 -11 -17 -9 -29 -3 -77 33 -92 70 -237 218 -281 287 -62 98 -84
163 -78 242 8 115 60 179 152 187 76 6 114 -16 196 -114 l70 -83 67 79 c81 94
121 120 189 120 120 0 185 -112 163 -282 -8 -57 -1 -65 60 -69 l44 -4 12 53
c41 182 -41 364 -186 411 -39 12 -128 15 -175 6 -43 -9 -108 -49 -143 -89
l-30 -34 -38 40 c-73 75 -178 106 -281 83z"/>
<path d="M869 796 c-1 -17 0 -43 1 -57 2 -31 -10 -37 -72 -34 l-48 2 0 -53 0
-54 43 1 c79 2 75 6 76 -71 l1 -70 -55 0 -55 0 -1 -32 c0 -18 -2 -41 -4 -50
-4 -21 -6 -20 60 -22 l50 -2 2 -53 c2 -59 8 -68 50 -65 15 1 34 3 41 3 8 1 12
19 12 56 0 30 3 55 8 56 48 7 132 4 135 -5 2 -6 3 -32 2 -58 -1 -27 4 -48 9
-49 82 -8 96 1 96 63 l0 53 58 0 57 0 2 53 3 52 -60 0 c-41 0 -60 4 -61 13 -3
41 1 120 6 125 3 4 30 5 59 4 l54 -2 4 40 c5 60 0 65 -64 65 -33 0 -58 4 -59
10 0 5 -1 32 -2 60 l-2 50 -47 0 c-26 1 -49 -4 -51 -10 -2 -5 -3 -31 -2 -57 1
-29 -2 -49 -9 -49 -34 -4 -113 -5 -123 -1 -9 3 -13 24 -13 61 l0 57 -50 0
c-49 0 -50 -1 -51 -30z m226 -195 c19 -1 21 -7 20 -68 l0 -68 -73 -3 -72 -3 0
70 c0 38 4 71 10 73 5 2 29 2 52 1 24 -1 52 -2 63 -2z"/>
</g>
</svg>
